# xmcd
#
# Track frame offsets: 
#        150
#        15004
#        32521
#        50081
#        73013
#        91841
#        111159
#        130738
#        152182
#        173019
#        192282
#
# Disc length: 2892 seconds
#
# Revision: 0
# Processed by: cddbd v1.5.2PL0 Copyright (c) Steve Scherf et al.
# Submitted via: ExactAudioCopy v1.3
#
DISCID=830b4a0b
DTITLE=Zac Harmon - Mississippi Barbq
DYEAR=2019
DGENRE=Blues
TTITLE0=Gypsy Road
TTITLE1=So Cold
TTITLE2=Smoke and Mirrors
TTITLE3=Mississippi Barbq
TTITLE4=Desperate Love
TTITLE5=Baby Pleez
TTITLE6=Making a Dollar out of Fifteen Cents
TTITLE7=Sunday Morning After Saturday Night
TTITLE8=Lord Save Me from L.A.
TTITLE9=Since You Been Gone
TTITLE10=Knocking on Heaven's Door
EXTD=
EXTT0=
EXTT1=
EXTT2=
EXTT3=
EXTT4=
EXTT5=
EXTT6=
EXTT7=
EXTT8=
EXTT9=
EXTT10=
PLAYORDER=
